<svg width="15" height="18" viewBox="0 0 15 18" fill="none" xmlns="http://www.w3.org/2000/svg">
<path d="M0.652174 4C0.652174 1.79086 2.44304 0 4.65217 0H13C14.1046 0 15 0.895431 15 2V15.3913C15 16.4959 14.1046 17.3913 13 17.3913H4.65217C2.44303 17.3913 0.652174 15.6005 0.652174 13.3913V4Z" fill="#FF8282"/>
<path d="M3.07221 13.913H11.9278C12.0887 13.913 12.2465 13.8683 12.3835 13.784C13.1303 13.3244 12.8046 12.1738 11.9278 12.1738H3.07221C2.91129 12.1738 2.75352 12.2185 2.61647 12.3028C1.86974 12.7624 2.19541 13.913 3.07221 13.913Z" fill="white"/>
</svg>
